PathFileType	4	(X/Y/Z)	/Users/itak/Documents/Research/Walk-IL/dataset/trc/00061_00006.trc
DataRate	CameraRate	NumFrames	NumMarkers	Units	OrigDataRate	OrigDataStartFrame	OrigNumFrames
100.000000	100.000000	4	53	mm	100.000000	693	793
Frame#	Time	RPSI			LPSI			L3			STRN			T10			C7			CLAV			RBAK			LBAK			LSHO			LUPA			LAEL			LAOL			LWTS			LWPS			LFRA			LIFD			LHPS			LHTS			RSHO			RUPA			RAEL			RAOL			RWTS			RWPS			RFRA			RIFD			RHTS			RHPS			RBHD			LFHD			RFHD			LBHD			LHIP			RHIP			RASI			LASI			LKNE			LTHI			LANK			LTIP			LTOE			LMT1			LMT5			LHEE			RKNE			RTHI			RANK			RTIP			RTOE			RMT1			RMT5			RHEE			
		X1	Y1	Z1	X2	Y2	Z2	X3	Y3	Z3	X4	Y4	Z4	X5	Y5	Z5	X6	Y6	Z6	X7	Y7	Z7	X8	Y8	Z8	X9	Y9	Z9	X10	Y10	Z10	X11	Y11	Z11	X12	Y12	Z12	X13	Y13	Z13	X14	Y14	Z14	X15	Y15	Z15	X16	Y16	Z16	X17	Y17	Z17	X18	Y18	Z18	X19	Y19	Z19	X20	Y20	Z20	X21	Y21	Z21	X22	Y22	Z22	X23	Y23	Z23	X24	Y24	Z24	X25	Y25	Z25	X26	Y26	Z26	X27	Y27	Z27	X28	Y28	Z28	X29	Y29	Z29	X30	Y30	Z30	X31	Y31	Z31	X32	Y32	Z32	X33	Y33	Z33	X34	Y34	Z34	X35	Y35	Z35	X36	Y36	Z36	X37	Y37	Z37	X38	Y38	Z38	X39	Y39	Z39	X40	Y40	Z40	X41	Y41	Z41	X42	Y42	Z42	X43	Y43	Z43	X44	Y44	Z44	X45	Y45	Z45	X46	Y46	Z46	X47	Y47	Z47	X48	Y48	Z48	X49	Y49	Z49	X50	Y50	Z50	X51	Y51	Z51	X52	Y52	Z52	X53	Y53	Z53	

694	6.93	-506.5726928710938	1032.978393554688	1090.138916015625	-468.8981628417969	1023.405456542969	919.5467529296875	-485.5148620605469	1086.139892578125	997.9205322265625	-253.3829956054688	1292.290649414062	1072.745727539062	-503.9606323242188	1219.477416992188	979.9210205078125	-452.6863098144531	1487.820434570312	990.3121948242188	-284.3016662597656	1405.602661132812	1057.538696289062	-535.1177978515625	1349.4375	1041.173706054688	-438.0048828125	1449.156372070312	889.08935546875	-315.8009643554688	1454.888671875	857.8212280273438	-302.7228698730469	1331.366577148438	777.7909545898438	-266.5773620605469	1119.332885742188	754.6932373046875	-355.4790649414062	1099.146728515625	807.79296875	-197.2465667724609	884.7092895507812	854.45068359375	-222.953857421875	870.86865234375	775.5003051757812	-237.9378204345703	1011.113342285156	756.8956298828125	-188.4023590087891	699.6198120117188	880.410888671875	-193.1119995117188	791.1180419921875	795.4215087890625	-173.8455047607422	802.3234252929688	863.0436401367188	-454.7203674316406	1458.723388671875	1175.879638671875	-490.3847045898438	1395.21240234375	1231.817260742188	-557.6309204101562	1146.950561523438	1277.7373046875	-510.891357421875	1111.978149414062	1197.156616210938	-423.6490173339844	885.9052124023438	1304.711791992188	-509.1498718261719	879.6605224609375	1325.202880859375	-554.3438110351562	1065.180541992188	1297.473754882812	-446.6898193359375	694.2538452148438	1279.898193359375	-421.0035400390625	776.4965209960938	1307.517578125	-493.2594909667969	786.9534301757812	1333.034790039062	-411.3493957519531	1671.720825195312	961.2052612304688	-259.5034484863281	1702.77734375	1111.650024414062	-237.9642181396484	1706.03271484375	987.2404174804688	-425.9541931152344	1660.9248046875	1098.070556640625	-341.4706420898438	965.5958862304688	861.1234130859375	-465.4566345214844	963.1311645507812	1183.444580078125	-341.0892639160156	982.0308837890625	1201.59521484375	-252.0284423828125	978.7987670898438	947.4913940429688	-256.0296936035156	504.5536193847656	953.809814453125	-283.3391723632812	642.6317138671875	901.34326171875	-395.4064025878906	54.90440368652344	901.8389892578125	-327.8428344726562	264.6130981445312	911.9202880859375	-199.3721923828125	45.92828369140625	960.3106079101562	-259.9706726074219	42.12701416015625	999.2005004882812	-287.0696105957031	46.24605560302734	890.1954345703125	-466.5180969238281	52.8944206237793	960.6722412109375	-386.8547973632812	519.2052001953125	1170.412963867188	-384.6151428222656	789.4730224609375	1209.62744140625	-492.9515991210938	44.96847915649414	1109.202270507812	-414.1296691894531	395.6526489257812	1161.169799804688	-280.6200866699219	44.86420822143555	1167.003662109375	-318.25	49.39352416992188	1104.936767578125	-387.7803955078125	50.91161727905273	1174.87646484375	-511.3831787109375	49.94592666625977	1038.799926757812	
695	6.94	-504.9647216796875	1033.149169921875	1090.774291992188	-467.61865234375	1023.904907226562	920.13427734375	-484.1185607910156	1086.322021484375	998.420166015625	-251.9947052001953	1292.41162109375	1072.592651367188	-502.6551208496094	1219.538940429688	980.3861694335938	-451.5890808105469	1487.96142578125	990.8590698242188	-282.9788513183594	1405.709350585938	1057.563598632812	-533.8710327148438	1349.44873046875	1041.7255859375	-437.0909729003906	1449.383544921875	889.5797729492188	-315.0158081054688	1455.24853515625	857.96826171875	-302.1982727050781	1331.828735351562	777.7017822265625	-266.577880859375	1119.64013671875	754.3871459960938	-355.5553283691406	1099.707763671875	807.4412841796875	-198.1856231689453	884.7608642578125	854.2318115234375	-223.7965698242188	870.9952392578125	775.2304077148438	-238.2954559326172	1011.311157226562	756.613525390625	-189.9799346923828	699.6319580078125	880.2689819335938	-194.2019500732422	791.140625	795.2234497070312	-175.0778198242188	802.3325805664062	862.8677978515625	-453.1689147949219	1458.599853515625	1176.348999023438	-488.6913757324219	1394.879028320312	1232.313598632812	-555.1756591796875	1146.342651367188	1277.871215820312	-508.5413208007812	1111.5859375	1197.155395507812	-420.4736022949219	885.6063842773438	1304.265380859375	-505.9552307128906	879.0659790039062	1324.838989257812	-551.6390380859375	1064.548217773438	1297.485473632812	-442.7646484375	693.9293823242188	1279.404174804688	-417.416259765625	776.2239379882812	1306.964111328125	-489.7121276855469	786.4432983398438	1332.6318359375	-410.2846069335938	1672.028564453125	962.0521240234375	-257.9263000488281	1702.726928710938	1112.041015625	-236.7745819091797	1706.201782226562	987.5524291992188	-424.4464721679688	1660.96630859375	1098.91650390625	-340.44287109375	965.85009765625	861.5516967773438	-463.7135314941406	963.3306274414062	1184.087036132812	-339.2835998535156	982.103271484375	1201.929565429688	-250.6936950683594	978.8712158203125	947.6568603515625	-258.2822265625	504.465087890625	952.5280151367188	-284.8365478515625	642.747802734375	900.6513671875	-395.5931396484375	54.58495712280273	901.7950439453125	-329.140625	264.4821166992188	911.3734130859375	-199.5158081054688	46.02350234985352	960.3008422851562	-260.0778198242188	42.09803009033203	999.1643676757812	-287.2359008789062	46.09515762329102	890.1536865234375	-466.7338562011719	52.37289047241211	960.7113647460938	-387.3508911132812	519.2366943359375	1170.031127929688	-383.5097045898438	789.4207763671875	1209.932861328125	-492.9425659179688	45.02014923095703	1109.226806640625	-414.7437133789062	395.98779296875	1160.707885742188	-280.6159057617188	44.93474578857422	1166.863891601562	-318.27880859375	49.35983276367188	1104.864868164062	-387.7332763671875	50.9862060546875	1174.776000976562	-511.4178466796875	50.01745223999023	1038.863403320312	
696	6.95	-503.3661804199219	1033.392944335938	1091.41259765625	-466.3592224121094	1024.525756835938	920.726806640625	-482.7308349609375	1086.547241210938	998.9290161132812	-250.6454162597656	1292.595458984375	1072.479370117188	-501.3410339355469	1219.627075195312	980.845703125	-450.5241394042969	1488.130737304688	991.365478515625	-281.7076721191406	1405.886108398438	1057.602294921875	-532.6057739257812	1349.4814453125	1042.266479492188	-436.1898498535156	1449.634033203125	890.039306640625	-314.2359008789062	1455.657592773438	858.1104125976562	-301.665771484375	1332.324829101562	777.6275634765625	-266.587890625	1119.98046875	754.1497192382812	-355.6276245117188	1100.319091796875	807.1827392578125	-199.1387939453125	884.7962646484375	853.9658813476562	-224.7027587890625	871.14794921875	774.9274291992188	-238.6830596923828	1011.545532226562	756.3585205078125	-191.6533355712891	699.5840454101562	880.0093383789062	-195.3886108398438	791.1737670898438	794.9400024414062	-176.3681182861328	802.2997436523438	862.6066284179688	-451.7293701171875	1458.546630859375	1176.790771484375	-487.105712890625	1394.615478515625	1232.744995117188	-552.8375244140625	1145.812133789062	1277.891723632812	-506.2515869140625	1111.264892578125	1197.078735351562	-417.4373474121094	885.3803100585938	1303.769409179688	-502.8861389160156	878.5426025390625	1324.376586914062	-549.0670776367188	1063.978149414062	1297.376220703125	-438.9423217773438	693.68212890625	1278.844116210938	-413.9524841308594	776.0220336914062	1306.358642578125	-486.302490234375	786.0089721679688	1332.154663085938	-409.2466735839844	1672.380859375	962.8401489257812	-256.4226379394531	1702.718505859375	1112.418334960938	-235.6156921386719	1706.415649414062	987.8540649414062	-423.0083618164062	1661.065185546875	1099.7001953125	-339.4490051269531	966.2042846679688	861.95947265625	-461.9978637695312	963.5687255859375	1184.734130859375	-337.4891967773438	982.1818237304688	1202.220825195312	-249.3865966796875	979.0070190429688	947.767333984375	-260.58544921875	504.4358520507812	951.173828125	-286.43017578125	642.9445190429688	899.8880615234375	-395.7609252929688	54.33518600463867	901.7786865234375	-330.4990234375	264.4468688964844	910.8130493164062	-199.6299743652344	46.11870956420898	960.310791015625	-260.1712341308594	42.08453750610352	999.1392822265625	-287.3702392578125	45.99381256103516	890.1307983398438	-466.8997497558594	51.92367553710938	960.7904052734375	-387.8972473144531	519.2988891601562	1169.573608398438	-382.4774169921875	789.374267578125	1210.166625976562	-492.9296569824219	45.08747100830078	1109.2548828125	-415.3793640136719	396.3595581054688	1160.223754882812	-280.6095581054688	44.99183654785156	1166.722534179688	-318.3052978515625	49.32424545288086	1104.794799804688	-387.6823120117188	51.06622314453125	1174.68408203125	-511.4482727050781	50.09793090820312	1038.924560546875	
697	6.96	-501.7871704101562	1033.69873046875	1092.049926757812	-465.115478515625	1025.243774414062	921.3186645507812	-481.34423828125	1086.801147460938	999.4475708007812	-249.3332366943359	1292.833862304688	1072.410522460938	-500.0213012695312	1219.736328125	981.305419921875	-449.4916381835938	1488.322631835938	991.8414916992188	-280.4883117675781	1406.123413085938	1057.660766601562	-531.3238525390625	1349.530151367188	1042.800048828125	-435.3060607910156	1449.90283203125	890.4780883789062	-313.4582824707031	1456.106079101562	858.2542114257812	-301.133056640625	1332.845458984375	777.57177734375	-266.6072692871094	1120.343017578125	753.99072265625	-355.6729431152344	1100.971801757812	807.0413208007812	-200.0967864990234	884.8060302734375	853.65869140625	-225.6588439941406	871.3223266601562	774.5955200195312	-239.0959625244141	1011.81005859375	756.1375732421875	-193.4105529785156	699.4689331054688	879.622314453125	-196.6615447998047	791.2138061523438	794.5723876953125	-177.70556640625	802.2132568359375	862.2638549804688	-450.4041748046875	1458.556518554688	1177.21875	-485.6203308105469	1394.419555664062	1233.127197265625	-550.6148681640625	1145.353393554688	1277.828247070312	-504.0235595703125	1111.014770507812	1196.948120117188	-414.5309448242188	885.2232666015625	1303.221557617188	-499.9391479492188	878.0890502929688	1323.828002929688	-546.6253662109375	1063.465698242188	1297.174072265625	-435.2410888671875	693.5089111328125	1278.193359375	-410.6163024902344	775.8905029296875	1305.695556640625	-483.0181884765625	785.636474609375	1331.594848632812	-408.2388916015625	1672.763061523438	963.568115234375	-254.9938354492188	1702.754760742188	1112.777954101562	-234.4940948486328	1706.661865234375	988.1470947265625	-421.6423645019531	1661.218383789062	1100.425415039062	-338.492919921875	966.6395874023438	862.3410034179688	-460.3230285644531	963.84228515625	1185.370483398438	-335.7139892578125	982.2681274414062	1202.462524414062	-248.1075897216797	979.1906127929688	947.8171997070312	-262.9022216796875	504.453857421875	949.7711791992188	-288.075439453125	643.2110595703125	899.0826416015625	-395.9078369140625	54.14512634277344	901.7738647460938	-331.8988037109375	264.5111389160156	910.22998046875	-199.7118988037109	46.19770812988281	960.32958984375	-260.2521362304688	42.08377838134766	999.1159057617188	-287.4700927734375	45.9230842590332	890.1146850585938	-467.0259704589844	51.54935073852539	960.8770751953125	-388.4811096191406	519.3819580078125	1169.0634765625	-381.5409851074219	789.317138671875	1210.327758789062	-492.9161987304688	45.1672248840332	1109.291381835938	-416.0327453613281	396.7612609863281	1159.75	-280.6037292480469	45.03371429443359	1166.592651367188	-318.327392578125	49.29735946655273	1104.7353515625	-387.6304626464844	51.14216232299805	1174.612670898438	-511.4778442382812	50.18850708007812	1038.988403320312	
